<svg width="130" height="27" viewBox="0 0 130 27" fill="none" xmlns="http://www.w3.org/2000/svg">
<path d="M66.6602 22H57.6484V21.0859C57.9141 21.0625 58.2383 21.0234 58.6211 20.9688C59.0117 20.9141 59.2773 20.8555 59.418 20.793C59.707 20.6758 59.9141 20.5156 60.0391 20.3125C60.1641 20.1094 60.2266 19.8516 60.2266 19.5391V7.11719L54.5078 21.7305H53.0312C52.9609 21.4727 52.7852 20.9609 52.5039 20.1953C52.2305 19.4297 52.0078 18.8164 51.8359 18.3555L47.6289 6.92969V17.043C47.6289 18.0117 47.6914 18.75 47.8164 19.2578C47.9492 19.7578 48.1602 20.125 48.4492 20.3594C48.6445 20.5234 48.9922 20.6797 49.4922 20.8281C50 20.9766 50.3555 21.0625 50.5586 21.0859V22H43.4102V21.0859C43.6055 21.0625 43.9219 21.0117 44.3594 20.9336C44.8047 20.8477 45.168 20.7031 45.4492 20.5C45.7617 20.2812 45.9727 19.9141 46.082 19.3984C46.1914 18.875 46.2461 18.1328 46.2461 17.1719V8.93359C46.2461 8.43359 46.1836 8.01953 46.0586 7.69141C45.9336 7.35547 45.7461 7.08984 45.4961 6.89453C45.1836 6.65234 44.8633 6.49609 44.5352 6.42578C44.207 6.35547 43.875 6.30859 43.5391 6.28516V5.37109H51.1914L55.293 16.3516L58.75 7.43359C58.8672 7.10547 58.9805 6.71484 59.0898 6.26172C59.1992 5.80859 59.2578 5.51172 59.2656 5.37109H66.6367V6.28516C66.3867 6.30078 66.125 6.33203 65.8516 6.37891C65.5781 6.42578 65.3164 6.48828 65.0664 6.56641C64.7617 6.66797 64.5586 6.82812 64.457 7.04688C64.3633 7.26563 64.3164 7.50781 64.3164 7.77344V19.5508C64.3164 19.832 64.3633 20.0703 64.457 20.2656C64.5586 20.4531 64.7617 20.6172 65.0664 20.7578C65.2227 20.8281 65.4766 20.8945 65.8281 20.957C66.1875 21.0195 66.4648 21.0625 66.6602 21.0859V22ZM75.6484 22H68.2422V21.1445C68.4453 21.1289 68.6445 21.1094 68.8398 21.0859C69.0352 21.0625 69.2031 21.0234 69.3438 20.9688C69.5938 20.875 69.7695 20.7422 69.8711 20.5703C69.9727 20.3906 70.0234 20.1562 70.0234 19.8672V13.0469C70.0234 12.7734 69.9609 12.5352 69.8359 12.332C69.7109 12.1211 69.5547 11.9531 69.3672 11.8281C69.2266 11.7344 69.0117 11.6445 68.7227 11.5586C68.4414 11.4727 68.1836 11.418 67.9492 11.3945V10.5391L73.6914 10.2344L73.8672 10.4102V19.7148C73.8672 19.9883 73.9258 20.2227 74.043 20.418C74.1602 20.6055 74.3281 20.7461 74.5469 20.8398C74.7031 20.9102 74.875 20.9727 75.0625 21.0273C75.25 21.082 75.4453 21.1211 75.6484 21.1445V22ZM73.9375 6.01562C73.9375 6.60938 73.707 7.11719 73.2461 7.53906C72.793 7.95312 72.2539 8.16016 71.6289 8.16016C70.9961 8.16016 70.4492 7.95312 69.9883 7.53906C69.5352 7.11719 69.3086 6.60938 69.3086 6.01562C69.3086 5.42187 69.5352 4.91406 69.9883 4.49219C70.4492 4.07031 70.9961 3.85938 71.6289 3.85938C72.2617 3.85938 72.8047 4.07031 73.2578 4.49219C73.7109 4.91406 73.9375 5.42187 73.9375 6.01562ZM91.8789 21.7539L86.1016 22.0938L85.9258 21.9297V20.8516L85.8438 20.8281C85.4609 21.2422 84.9414 21.6055 84.2852 21.918C83.6367 22.2227 82.9805 22.375 82.3164 22.375C80.7383 22.375 79.4375 21.7891 78.4141 20.6172C77.3906 19.4453 76.8789 17.9297 76.8789 16.0703C76.8789 14.4219 77.4492 13.0078 78.5898 11.8281C79.7383 10.6484 81.125 10.0586 82.75 10.0586C83.3906 10.0586 83.9922 10.1328 84.5547 10.2812C85.1172 10.4219 85.5664 10.5898 85.9023 10.7852V6.95312C85.9023 6.66406 85.8438 6.39453 85.7266 6.14453C85.6094 5.88672 85.4531 5.6875 85.2578 5.54688C85.0156 5.375 84.7109 5.25391 84.3438 5.18359C83.9844 5.10547 83.6211 5.05078 83.2539 5.01953V4.16406L89.582 3.85938L89.7578 4.04688V19.4102C89.7578 19.707 89.8047 19.957 89.8984 20.1602C90 20.3633 90.1602 20.5234 90.3789 20.6406C90.543 20.7266 90.7812 20.7891 91.0938 20.8281C91.4141 20.8672 91.6758 20.8906 91.8789 20.8984V21.7539ZM85.9023 19.668V13.0469C85.8477 12.8672 85.7695 12.668 85.668 12.4492C85.5742 12.2305 85.4414 12.0234 85.2695 11.8281C85.1133 11.6641 84.9023 11.5195 84.6367 11.3945C84.3789 11.2695 84.0859 11.207 83.7578 11.207C82.9766 11.207 82.3359 11.6484 81.8359 12.5312C81.3359 13.4141 81.0859 14.6602 81.0859 16.2695C81.0859 16.9023 81.1289 17.4727 81.2148 17.9805C81.3086 18.4805 81.4688 18.9375 81.6953 19.3516C81.9219 19.7656 82.2109 20.0898 82.5625 20.3242C82.9219 20.5586 83.3516 20.6758 83.8516 20.6758C84.3281 20.6758 84.7227 20.5859 85.0352 20.4062C85.3477 20.2188 85.6367 19.9727 85.9023 19.668ZM107.793 21.7539L102.016 22.0938L101.84 21.9297V20.8516L101.758 20.8281C101.375 21.2422 100.855 21.6055 100.199 21.918C99.5508 22.2227 98.8945 22.375 98.2305 22.375C96.6523 22.375 95.3516 21.7891 94.3281 20.6172C93.3047 19.4453 92.793 17.9297 92.793 16.0703C92.793 14.4219 93.3633 13.0078 94.5039 11.8281C95.6523 10.6484 97.0391 10.0586 98.6641 10.0586C99.3047 10.0586 99.9062 10.1328 100.469 10.2812C101.031 10.4219 101.48 10.5898 101.816 10.7852V6.95312C101.816 6.66406 101.758 6.39453 101.641 6.14453C101.523 5.88672 101.367 5.6875 101.172 5.54688C100.93 5.375 100.625 5.25391 100.258 5.18359C99.8984 5.10547 99.5352 5.05078 99.168 5.01953V4.16406L105.496 3.85938L105.672 4.04688V19.4102C105.672 19.707 105.719 19.957 105.812 20.1602C105.914 20.3633 106.074 20.5234 106.293 20.6406C106.457 20.7266 106.695 20.7891 107.008 20.8281C107.328 20.8672 107.59 20.8906 107.793 20.8984V21.7539ZM101.816 19.668V13.0469C101.762 12.8672 101.684 12.668 101.582 12.4492C101.488 12.2305 101.355 12.0234 101.184 11.8281C101.027 11.6641 100.816 11.5195 100.551 11.3945C100.293 11.2695 100 11.207 99.6719 11.207C98.8906 11.207 98.25 11.6484 97.75 12.5312C97.25 13.4141 97 14.6602 97 16.2695C97 16.9023 97.043 17.4727 97.1289 17.9805C97.2227 18.4805 97.3828 18.9375 97.6094 19.3516C97.8359 19.7656 98.125 20.0898 98.4766 20.3242C98.8359 20.5586 99.2656 20.6758 99.7656 20.6758C100.242 20.6758 100.637 20.5859 100.949 20.4062C101.262 20.2188 101.551 19.9727 101.816 19.668ZM115.691 22H108.344V21.1445C108.547 21.1289 108.742 21.1094 108.93 21.0859C109.125 21.0625 109.297 21.0234 109.445 20.9688C109.695 20.875 109.863 20.7422 109.949 20.5703C110.043 20.3906 110.09 20.1562 110.09 19.8672V6.88281C110.09 6.58594 110.027 6.3125 109.902 6.0625C109.785 5.80469 109.625 5.60937 109.422 5.47656C109.266 5.375 109.027 5.27734 108.707 5.18359C108.395 5.08984 108.117 5.03516 107.875 5.01953V4.16406L113.77 3.85938L113.945 4.04688V19.7148C113.945 20.0039 113.996 20.2383 114.098 20.418C114.199 20.5977 114.363 20.7383 114.59 20.8398C114.746 20.9102 114.91 20.9727 115.082 21.0273C115.254 21.082 115.457 21.1211 115.691 21.1445V22ZM129.426 19.1992C129.152 19.6445 128.82 20.0664 128.43 20.4648C128.047 20.8555 127.609 21.1914 127.117 21.4727C126.594 21.7695 126.062 21.9922 125.523 22.1406C124.992 22.2969 124.379 22.375 123.684 22.375C122.527 22.375 121.527 22.2109 120.684 21.8828C119.848 21.5547 119.156 21.1133 118.609 20.5586C118.062 20.0039 117.652 19.3516 117.379 18.6016C117.113 17.8438 116.98 17.0234 116.98 16.1406C116.98 15.3438 117.125 14.582 117.414 13.8555C117.711 13.1211 118.129 12.4688 118.668 11.8984C119.199 11.3438 119.867 10.8945 120.672 10.5508C121.484 10.207 122.391 10.0352 123.391 10.0352C124.484 10.0352 125.383 10.168 126.086 10.4336C126.789 10.6992 127.371 11.0664 127.832 11.5352C128.277 11.9805 128.602 12.5078 128.805 13.1172C129.008 13.7188 129.109 14.3516 129.109 15.0156V15.7773H121.188C121.188 17.3789 121.496 18.5977 122.113 19.4336C122.73 20.2695 123.711 20.6875 125.055 20.6875C125.789 20.6875 126.449 20.4883 127.035 20.0898C127.621 19.6836 128.121 19.1719 128.535 18.5547L129.426 19.1992ZM124.949 14.7461C124.949 14.2773 124.926 13.7969 124.879 13.3047C124.832 12.8125 124.75 12.4102 124.633 12.0977C124.5 11.7305 124.316 11.4531 124.082 11.2656C123.855 11.0781 123.566 10.9844 123.215 10.9844C122.613 10.9844 122.133 11.2891 121.773 11.8984C121.414 12.5078 121.219 13.4727 121.188 14.793L124.949 14.7461Z" fill="#191919"/>
<path d="M8 5L16 19H0L8 5Z" fill="#191919"/>
<path d="M20 7L29 21H11L20 7Z" fill="#191919"/>
<path d="M31.5 5L40 19H23L31.5 5Z" fill="#191919"/>
</svg>
