<svg width="50" height="50" viewBox="0 0 50 50" fill="none" xmlns="http://www.w3.org/2000/svg">
<g clip-path="url(#clip0_93_221)">
<path d="M40.625 28.275L25 43.75L9.37498 28.275M9.37498 28.275C8.34436 27.2721 7.53256 26.0667 6.9907 24.7346C6.44884 23.4026 6.18865 21.9728 6.22651 20.5353C6.26438 19.0977 6.59948 17.6836 7.21072 16.3819C7.82196 15.0803 8.69609 13.9193 9.77807 12.972C10.8601 12.0248 12.1264 11.3118 13.4975 10.8781C14.8686 10.4443 16.3146 10.2991 17.7445 10.4517C19.1744 10.6042 20.5573 11.0511 21.806 11.7644C23.0547 12.4776 24.1422 13.4416 25 14.5958C25.8615 13.45 26.9503 12.4944 28.1981 11.7887C29.4459 11.0831 30.826 10.6426 32.2519 10.4948C33.6778 10.347 35.1189 10.4952 36.4849 10.93C37.8509 11.3647 39.1125 12.0768 40.1907 13.0216C41.2689 13.9663 42.1405 15.1235 42.7509 16.4206C43.3613 17.7177 43.6974 19.1268 43.7381 20.5598C43.7789 21.9928 43.5234 23.4187 42.9878 24.7484C42.4521 26.0781 41.6477 27.2829 40.625 28.2875" stroke="#2C3E50" stroke-linecap="round" stroke-linejoin="round"/>
</g>
<defs>
<clipPath id="clip0_93_221">
<rect width="50" height="50" fill="white"/>
</clipPath>
</defs>
</svg>
