<svg width="464" height="366" viewBox="0 0 464 366" fill="none" xmlns="http://www.w3.org/2000/svg">
<g clip-path="url(#clip0_1001_925)">
<mask id="mask0_1001_925" style="mask-type:alpha" maskUnits="userSpaceOnUse" x="0" y="0" width="464" height="366">
<path d="M464 0H0V366H464V0Z" fill="white"/>
</mask>
<g mask="url(#mask0_1001_925)">
<path d="M216.248 35.0914L220.114 24.7182V35.0914H221.678V22.4891H219.446L215.598 32.8447L211.767 22.4891H209.465V35.0914H211.047V24.7182L214.895 35.0914H216.248Z" fill="black"/>
<path d="M234.727 35.0914L238.593 24.7182V35.0914H240.157V22.4891H237.926L234.077 32.8447L230.246 22.4891H227.944V35.0914H229.526V24.7182L233.374 35.0914H234.727Z" fill="black"/>
<path d="M253.206 35.0914L257.072 24.7182V35.0914H258.636V22.4891H256.405L252.556 32.8447L248.725 22.4891H246.423V35.0914H248.005V24.7182L251.853 35.0914H253.206Z" fill="black"/>
<path d="M290.164 35.0914L294.031 24.7182V35.0914H295.595V22.4891H293.363L289.514 32.8447L285.683 22.4891H283.381V35.0914H284.963V24.7182L288.811 35.0914H290.164Z" fill="black"/>
<path d="M401.039 35.0914L404.905 24.7182V35.0914H406.469V22.4891H404.237L400.389 32.8447L396.558 22.4891H394.256V35.0914H395.837V24.7182L399.686 35.0914H401.039Z" fill="black"/>
<path d="M419.518 35.0914L423.384 24.7182V35.0914H424.948V22.4891H422.716L418.868 32.8447L415.037 22.4891H412.735V35.0914H414.317V24.7182L418.165 35.0914H419.518Z" fill="black"/>
<path d="M456.476 35.0914L460.342 24.7182V35.0914H461.906V22.4891H459.675L455.826 32.8447L451.995 22.4891H449.693V35.0914H451.275V24.7182L455.123 35.0914H456.476Z" fill="black"/>
<path d="M105.374 56.7979L109.24 46.4248V56.7979H110.804V44.1957H108.572L104.723 54.5512L100.892 44.1957H98.5903V56.7979H100.172V46.4248L104.02 56.7979H105.374Z" fill="black"/>
<path d="M234.727 56.7979L238.593 46.4248V56.7979H240.157V44.1957H237.926L234.077 54.5512L230.246 44.1957H227.944V56.7979H229.526V46.4248L233.374 56.7979H234.727Z" fill="black"/>
<path d="M271.685 56.7979L275.552 46.4248V56.7979H277.116V44.1957H274.884L271.035 54.5512L267.204 44.1957H264.902V56.7979H266.484V46.4248L270.332 56.7979H271.685Z" fill="black"/>
<path d="M308.644 56.7979L312.51 46.4248V56.7979H314.074V44.1957H311.842L307.993 54.5512L304.162 44.1957H301.86V56.7979H303.442V46.4248L307.29 56.7979H308.644Z" fill="black"/>
<path d="M345.602 56.7979L349.468 46.4248V56.7979H351.032V44.1957H348.8L344.952 54.5512L341.121 44.1957H338.819V56.7979H340.4V46.4248L344.249 56.7979H345.602Z" fill="black"/>
<path d="M12.978 77.7121L16.8441 67.339V77.7121H18.4081V65.1099H16.1763L12.3278 75.4654L8.49695 65.1099H6.19482V77.7121H7.77645V67.339L11.625 77.7121H12.978Z" fill="black"/>
<path d="M86.8944 77.7121L90.7605 67.339V77.7121H92.3245V65.1099H90.0927L86.2442 75.4654L82.4134 65.1099H80.1112V77.7121H81.6929V67.339L85.5414 77.7121H86.8944Z" fill="black"/>
<path d="M142.332 77.7121L146.198 67.339V77.7121H147.762V65.1099H145.53L141.682 75.4654L137.851 65.1099H135.549V77.7121H137.13V67.339L140.979 77.7121H142.332Z" fill="black"/>
<path d="M179.29 77.7121L183.156 67.339V77.7121H184.72V65.1099H182.488L178.64 75.4654L174.809 65.1099H172.507V77.7121H174.088V67.339L177.937 77.7121H179.29Z" fill="black"/>
<path d="M216.248 77.7121L220.114 67.339V77.7121H221.678V65.1099H219.446L215.598 75.4654L211.767 65.1099H209.465V77.7121H211.047V67.339L214.895 77.7121H216.248Z" fill="black"/>
<path d="M290.164 77.7121L294.031 67.339V77.7121H295.595V65.1099H293.363L289.514 75.4654L285.683 65.1099H283.381V77.7121H284.963V67.339L288.811 77.7121H290.164Z" fill="black"/>
<path d="M308.644 77.7121L312.51 67.339V77.7121H314.074V65.1099H311.842L307.993 75.4654L304.162 65.1099H301.86V77.7121H303.442V67.339L307.29 77.7121H308.644Z" fill="black"/>
<path d="M401.039 77.7121L404.905 67.339V77.7121H406.469V65.1099H404.237L400.389 75.4654L396.558 65.1099H394.256V77.7121H395.837V67.339L399.686 77.7121H401.039Z" fill="black"/>
<path d="M419.518 77.7121L423.384 67.339V77.7121H424.948V65.1099H422.716L418.868 75.4654L415.037 65.1099H412.735V77.7121H414.317V67.339L418.165 77.7121H419.518Z" fill="black"/>
<path d="M437.997 77.7121L441.863 67.339V77.7121H443.427V65.1099H441.196L437.347 75.4654L433.516 65.1099H431.214V77.7121H432.796V67.339L436.644 77.7121H437.997Z" fill="black"/>
<path d="M456.476 77.7121L460.342 67.339V77.7121H461.906V65.1099H459.675L455.826 75.4654L451.995 65.1099H449.693V77.7121H451.275V67.339L455.123 77.7121H456.476Z" fill="black"/>
<path d="M253.206 98.6264L257.072 88.2533V98.6264H258.636V86.0242H256.405L252.556 96.3797L248.725 86.0242H246.423V98.6264H248.005V88.2533L251.853 98.6264H253.206Z" fill="black"/>
<path d="M290.165 98.6264L294.031 88.2533V98.6264H295.595V86.0242H293.363L289.514 96.3797L285.683 86.0242H283.381V98.6264H284.963V88.2533L288.811 98.6264H290.165Z" fill="black"/>
<path d="M308.644 98.6264L312.51 88.2533V98.6264H314.074V86.0242H311.842L307.993 96.3797L304.162 86.0242H301.86V98.6264H303.442V88.2533L307.29 98.6264H308.644Z" fill="black"/>
<path d="M345.602 98.6264L349.468 88.2533V98.6264H351.032V86.0242H348.8L344.952 96.3797L341.121 86.0242H338.819V98.6264H340.4V88.2533L344.249 98.6264H345.602Z" fill="black"/>
<path d="M364.081 98.6264L367.947 88.2533V98.6264H369.511V86.0242H367.279L363.431 96.3797L359.6 86.0242H357.298V98.6264H358.879V88.2533L362.728 98.6264H364.081Z" fill="black"/>
<path d="M382.56 98.6264L386.426 88.2533V98.6264H387.99V86.0242H385.758L381.91 96.3797L378.079 86.0242H375.777V98.6264H377.358V88.2533L381.207 98.6264H382.56Z" fill="black"/>
<path d="M419.518 98.6264L423.384 88.2533V98.6264H424.948V86.0242H422.716L418.868 96.3797L415.037 86.0242H412.735V98.6264H414.317V88.2533L418.165 98.6264H419.518Z" fill="black"/>
<path d="M160.811 119.541L164.677 109.168V119.541H166.241V106.938H164.009L160.161 117.294L156.33 106.938H154.028V119.541H155.609V109.168L159.458 119.541H160.811Z" fill="black"/>
<path d="M179.29 119.541L183.156 109.168V119.541H184.72V106.938H182.488L178.64 117.294L174.809 106.938H172.507V119.541H174.088V109.168L177.937 119.541H179.29Z" fill="black"/>
<path d="M216.248 119.541L220.114 109.168V119.541H221.678V106.938H219.446L215.598 117.294L211.767 106.938H209.465V119.541H211.047V109.168L214.895 119.541H216.248Z" fill="black"/>
<path d="M308.644 119.541L312.51 109.168V119.541H314.074V106.938H311.842L307.993 117.294L304.162 106.938H301.86V119.541H303.442V109.168L307.29 119.541H308.644Z" fill="black"/>
<path d="M327.123 119.541L330.989 109.168V119.541H332.553V106.938H330.321L326.472 117.294L322.642 106.938H320.339V119.541H321.921V109.168L325.77 119.541H327.123Z" fill="black"/>
<path d="M456.476 119.541L460.342 109.168V119.541H461.906V106.938H459.675L455.826 117.294L451.995 106.938H449.693V119.541H451.275V109.168L455.123 119.541H456.476Z" fill="black"/>
<path d="M105.374 140.455L109.24 130.082V140.455H110.804V127.853H108.572L104.723 138.208L100.892 127.853H98.5903V140.455H100.172V130.082L104.02 140.455H105.374Z" fill="black"/>
<path d="M142.332 140.455L146.198 130.082V140.455H147.762V127.853H145.53L141.682 138.208L137.851 127.853H135.549V140.455H137.13V130.082L140.979 140.455H142.332Z" fill="black"/>
<path d="M160.811 140.455L164.677 130.082V140.455H166.241V127.853H164.009L160.161 138.208L156.33 127.853H154.028V140.455H155.609V130.082L159.458 140.455H160.811Z" fill="black"/>
<path d="M271.685 140.455L275.552 130.082V140.455H277.116V127.853H274.884L271.035 138.208L267.204 127.853H264.902V140.455H266.484V130.082L270.332 140.455H271.685Z" fill="black"/>
<path d="M364.081 140.455L367.947 130.082V140.455H369.511V127.853H367.279L363.431 138.208L359.6 127.853H357.298V140.455H358.879V130.082L362.728 140.455H364.081Z" fill="black"/>
<path d="M401.039 140.455L404.905 130.082V140.455H406.469V127.853H404.237L400.389 138.208L396.558 127.853H394.256V140.455H395.837V130.082L399.686 140.455H401.039Z" fill="black"/>
<path d="M437.997 140.455L441.863 130.082V140.455H443.427V127.853H441.196L437.347 138.208L433.516 127.853H431.214V140.455H432.796V130.082L436.644 140.455H437.997Z" fill="black"/>
<path d="M234.727 161.369L238.593 150.996V161.369H240.157V148.767H237.926L234.077 159.123L230.246 148.767H227.944V161.369H229.526V150.996L233.374 161.369H234.727Z" fill="black"/>
<path d="M253.206 161.369L257.072 150.996V161.369H258.636V148.767H256.405L252.556 159.123L248.725 148.767H246.423V161.369H248.005V150.996L251.853 161.369H253.206Z" fill="black"/>
<path d="M290.164 161.369L294.031 150.996V161.369H295.595V148.767H293.363L289.514 159.123L285.683 148.767H283.381V161.369H284.963V150.996L288.811 161.369H290.164Z" fill="black"/>
<path d="M437.997 161.369L441.863 150.996V161.369H443.427V148.767H441.196L437.347 159.123L433.516 148.767H431.214V161.369H432.796V150.996L436.644 161.369H437.997Z" fill="black"/>
<path d="M456.476 161.369L460.342 150.996V161.369H461.906V148.767H459.675L455.826 159.123L451.995 148.767H449.693V161.369H451.275V150.996L455.123 161.369H456.476Z" fill="black"/>
<path d="M234.727 182.284L238.593 171.91V182.284H240.157V169.681H237.926L234.077 180.037L230.246 169.681H227.944V182.284H229.526V171.91L233.374 182.284H234.727Z" fill="black"/>
<path d="M290.165 182.284L294.031 171.91V182.284H295.595V169.681H293.363L289.514 180.037L285.683 169.681H283.381V182.284H284.963V171.91L288.811 182.284H290.165Z" fill="black"/>
<path d="M364.081 182.284L367.947 171.91V182.284H369.511V169.681H367.279L363.431 180.037L359.6 169.681H357.298V182.284H358.879V171.91L362.728 182.284H364.081Z" fill="black"/>
<path d="M401.039 182.284L404.905 171.91V182.284H406.469V169.681H404.237L400.389 180.037L396.558 169.681H394.256V182.284H395.837V171.91L399.686 182.284H401.039Z" fill="black"/>
<path d="M142.332 203.198L146.198 192.825V203.198H147.762V190.596H145.53L141.682 200.951L137.851 190.596H135.549V203.198H137.13V192.825L140.979 203.198H142.332Z" fill="black"/>
<path d="M179.29 203.198L183.156 192.825V203.198H184.72V190.596H182.488L178.64 200.951L174.809 190.596H172.507V203.198H174.088V192.825L177.937 203.198H179.29Z" fill="black"/>
<path d="M234.727 203.198L238.593 192.825V203.198H240.157V190.596H237.926L234.077 200.951L230.246 190.596H227.944V203.198H229.526V192.825L233.374 203.198H234.727Z" fill="black"/>
<path d="M271.685 203.198L275.552 192.825V203.198H277.116V190.596H274.884L271.035 200.951L267.204 190.596H264.902V203.198H266.484V192.825L270.332 203.198H271.685Z" fill="black"/>
<path d="M308.644 203.198L312.51 192.825V203.198H314.074V190.596H311.842L307.993 200.951L304.162 190.596H301.86V203.198H303.442V192.825L307.29 203.198H308.644Z" fill="black"/>
<path d="M382.56 203.198L386.426 192.825V203.198H387.99V190.596H385.758L381.91 200.951L378.079 190.596H375.777V203.198H377.358V192.825L381.207 203.198H382.56Z" fill="black"/>
<path d="M419.518 203.198L423.384 192.825V203.198H424.948V190.596H422.716L418.868 200.951L415.037 190.596H412.735V203.198H414.317V192.825L418.165 203.198H419.518Z" fill="black"/>
<path d="M68.4153 224.112L72.2814 213.739V224.112H73.8454V211.51H71.6136L67.7651 221.865L63.9343 211.51H61.6321V224.112H63.2138V213.739L67.0623 224.112H68.4153Z" fill="black"/>
<path d="M123.853 224.112L127.719 213.739V224.112H129.283V211.51H127.051L123.202 221.865L119.372 211.51H117.069V224.112H118.651V213.739L122.5 224.112H123.853Z" fill="black"/>
<path d="M160.811 224.112L164.677 213.739V224.112H166.241V211.51H164.009L160.161 221.865L156.33 211.51H154.028V224.112H155.609V213.739L159.458 224.112H160.811Z" fill="black"/>
<path d="M179.29 224.112L183.156 213.739V224.112H184.72V211.51H182.488L178.64 221.865L174.809 211.51H172.507V224.112H174.088V213.739L177.937 224.112H179.29Z" fill="black"/>
<path d="M197.769 224.112L201.635 213.739V224.112H203.199V211.51H200.967L197.119 221.865L193.288 211.51H190.986V224.112H192.567V213.739L196.416 224.112H197.769Z" fill="black"/>
<path d="M327.123 224.112L330.989 213.739V224.112H332.553V211.51H330.321L326.472 221.865L322.642 211.51H320.339V224.112H321.921V213.739L325.77 224.112H327.123Z" fill="black"/>
<path d="M364.081 224.112L367.947 213.739V224.112H369.511V211.51H367.279L363.431 221.865L359.6 211.51H357.298V224.112H358.879V213.739L362.728 224.112H364.081Z" fill="black"/>
<path d="M419.518 224.112L423.384 213.739V224.112H424.948V211.51H422.716L418.868 221.865L415.037 211.51H412.735V224.112H414.317V213.739L418.165 224.112H419.518Z" fill="black"/>
<path d="M437.997 224.112L441.863 213.739V224.112H443.427V211.51H441.196L437.347 221.865L433.516 211.51H431.214V224.112H432.796V213.739L436.644 224.112H437.997Z" fill="black"/>
<path d="M456.476 224.112L460.342 213.739V224.112H461.906V211.51H459.675L455.826 221.865L451.995 211.51H449.693V224.112H451.275V213.739L455.123 224.112H456.476Z" fill="black"/>
<path d="M253.206 245.026L257.072 234.653V245.026H258.636V232.424H256.405L252.556 242.78L248.725 232.424H246.423V245.026H248.005V234.653L251.853 245.026H253.206Z" fill="black"/>
<path d="M271.685 245.026L275.552 234.653V245.026H277.116V232.424H274.884L271.035 242.78L267.204 232.424H264.902V245.026H266.484V234.653L270.332 245.026H271.685Z" fill="black"/>
<path d="M327.123 245.026L330.989 234.653V245.026H332.553V232.424H330.321L326.472 242.78L322.642 232.424H320.339V245.026H321.921V234.653L325.77 245.026H327.123Z" fill="black"/>
<path d="M382.56 245.026L386.426 234.653V245.026H387.99V232.424H385.758L381.91 242.78L378.079 232.424H375.777V245.026H377.358V234.653L381.207 245.026H382.56Z" fill="black"/>
<path d="M437.997 245.026L441.863 234.653V245.026H443.427V232.424H441.196L437.347 242.78L433.516 232.424H431.214V245.026H432.796V234.653L436.644 245.026H437.997Z" fill="black"/>
<path d="M456.476 245.026L460.342 234.653V245.026H461.906V232.424H459.675L455.826 242.78L451.995 232.424H449.693V245.026H451.275V234.653L455.123 245.026H456.476Z" fill="black"/>
<path d="M271.685 265.941L275.552 255.567V265.941H277.116V253.338H274.884L271.035 263.694L267.204 253.338H264.902V265.941H266.484V255.567L270.332 265.941H271.685Z" fill="black"/>
<path d="M290.165 265.941L294.031 255.567V265.941H295.595V253.338H293.363L289.514 263.694L285.683 253.338H283.381V265.941H284.963V255.567L288.811 265.941H290.165Z" fill="black"/>
<path d="M327.123 265.941L330.989 255.567V265.941H332.553V253.338H330.321L326.472 263.694L322.642 253.338H320.339V265.941H321.921V255.567L325.77 265.941H327.123Z" fill="black"/>
<path d="M437.997 265.941L441.863 255.567V265.941H443.427V253.338H441.196L437.347 263.694L433.516 253.338H431.214V265.941H432.796V255.567L436.644 265.941H437.997Z" fill="black"/>
<path d="M105.374 286.855L109.24 276.482V286.855H110.804V274.253H108.572L104.723 284.608L100.892 274.253H98.5903V286.855H100.172V276.482L104.02 286.855H105.374Z" fill="black"/>
<path d="M123.853 286.855L127.719 276.482V286.855H129.283V274.253H127.051L123.202 284.608L119.372 274.253H117.069V286.855H118.651V276.482L122.5 286.855H123.853Z" fill="black"/>
<path d="M234.727 286.855L238.593 276.482V286.855H240.157V274.253H237.926L234.077 284.608L230.246 274.253H227.944V286.855H229.526V276.482L233.374 286.855H234.727Z" fill="black"/>
<path d="M345.602 286.855L349.468 276.482V286.855H351.032V274.253H348.8L344.952 284.608L341.121 274.253H338.819V286.855H340.4V276.482L344.249 286.855H345.602Z" fill="black"/>
<path d="M382.56 286.855L386.426 276.482V286.855H387.99V274.253H385.758L381.91 284.608L378.079 274.253H375.777V286.855H377.358V276.482L381.207 286.855H382.56Z" fill="black"/>
<path d="M401.039 286.855L404.905 276.482V286.855H406.469V274.253H404.237L400.389 284.608L396.558 274.253H394.256V286.855H395.837V276.482L399.686 286.855H401.039Z" fill="black"/>
<path d="M437.997 286.855L441.863 276.482V286.855H443.427V274.253H441.196L437.347 284.608L433.516 274.253H431.214V286.855H432.796V276.482L436.644 286.855H437.997Z" fill="black"/>
<path d="M271.685 307.769L275.552 297.396V307.769H277.116V295.167H274.884L271.035 305.523L267.204 295.167H264.902V307.769H266.484V297.396L270.332 307.769H271.685Z" fill="black"/>
<path d="M290.165 307.769L294.031 297.396V307.769H295.595V295.167H293.363L289.514 305.523L285.683 295.167H283.381V307.769H284.963V297.396L288.811 307.769H290.165Z" fill="black"/>
<path d="M308.644 307.769L312.51 297.396V307.769H314.074V295.167H311.842L307.993 305.523L304.162 295.167H301.86V307.769H303.442V297.396L307.29 307.769H308.644Z" fill="black"/>
<path d="M364.081 307.769L367.947 297.396V307.769H369.511V295.167H367.279L363.431 305.523L359.6 295.167H357.298V307.769H358.879V297.396L362.728 307.769H364.081Z" fill="black"/>
<path d="M382.56 307.769L386.426 297.396V307.769H387.99V295.167H385.758L381.91 305.523L378.079 295.167H375.777V307.769H377.358V297.396L381.207 307.769H382.56Z" fill="black"/>
<path d="M401.039 307.769L404.905 297.396V307.769H406.469V295.167H404.237L400.389 305.523L396.558 295.167H394.256V307.769H395.837V297.396L399.686 307.769H401.039Z" fill="black"/>
<path d="M419.518 307.769L423.384 297.396V307.769H424.948V295.167H422.716L418.868 305.523L415.037 295.167H412.735V307.769H414.317V297.396L418.165 307.769H419.518Z" fill="black"/>
<path d="M437.997 307.769L441.863 297.396V307.769H443.427V295.167H441.196L437.347 305.523L433.516 295.167H431.214V307.769H432.796V297.396L436.644 307.769H437.997Z" fill="black"/>
<path d="M160.811 328.684L164.677 318.31V328.684H166.241V316.081H164.009L160.161 326.437L156.33 316.081H154.028V328.684H155.609V318.31L159.458 328.684H160.811Z" fill="black"/>
<path d="M216.248 328.684L220.114 318.31V328.684H221.678V316.081H219.446L215.598 326.437L211.767 316.081H209.465V328.684H211.047V318.31L214.895 328.684H216.248Z" fill="black"/>
<path d="M271.685 328.684L275.552 318.31V328.684H277.116V316.081H274.884L271.035 326.437L267.204 316.081H264.902V328.684H266.484V318.31L270.332 328.684H271.685Z" fill="black"/>
<path d="M382.56 328.684L386.426 318.31V328.684H387.99V316.081H385.758L381.91 326.437L378.079 316.081H375.777V328.684H377.358V318.31L381.207 328.684H382.56Z" fill="black"/>
<path d="M197.769 349.598L201.635 339.225V349.598H203.199V336.996H200.967L197.119 347.351L193.288 336.996H190.986V349.598H192.567V339.225L196.416 349.598H197.769Z" fill="black"/>
<path d="M216.248 349.598L220.114 339.225V349.598H221.678V336.996H219.446L215.598 347.351L211.767 336.996H209.465V349.598H211.047V339.225L214.895 349.598H216.248Z" fill="black"/>
<path d="M234.727 349.598L238.593 339.225V349.598H240.157V336.996H237.926L234.077 347.351L230.246 336.996H227.944V349.598H229.526V339.225L233.374 349.598H234.727Z" fill="black"/>
<path d="M253.206 349.598L257.072 339.225V349.598H258.636V336.996H256.405L252.556 347.351L248.725 336.996H246.423V349.598H248.005V339.225L251.853 349.598H253.206Z" fill="black"/>
<path d="M290.165 349.598L294.031 339.225V349.598H295.595V336.996H293.363L289.514 347.351L285.683 336.996H283.381V349.598H284.963V339.225L288.811 349.598H290.165Z" fill="black"/>
<path d="M345.602 349.598L349.468 339.225V349.598H351.032V336.996H348.8L344.952 347.351L341.121 336.996H338.819V349.598H340.4V339.225L344.249 349.598H345.602Z" fill="black"/>
<path d="M382.56 349.598L386.426 339.225V349.598H387.99V336.996H385.758L381.91 347.351L378.079 336.996H375.777V349.598H377.358V339.225L381.207 349.598H382.56Z" fill="black"/>
<path d="M437.997 349.598L441.863 339.225V349.598H443.427V336.996H441.196L437.347 347.351L433.516 336.996H431.214V349.598H432.796V339.225L436.644 349.598H437.997Z" fill="black"/>
<path d="M456.476 349.598L460.342 339.225V349.598H461.906V336.996H459.675L455.826 347.351L451.995 336.996H449.693V349.598H451.275V339.225L455.123 349.598H456.476Z" fill="black"/>
</g>
</g>
<defs>
<clipPath id="clip0_1001_925">
<rect width="464" height="366" fill="white"/>
</clipPath>
</defs>
</svg>
